<?xml version="1.0" standalone="no"?>
<!DOCTYPE svg PUBLIC "-//W3C//DTD SVG 20010904//EN"
 "http://www.w3.org/TR/2001/REC-SVG-20010904/DTD/svg10.dtd">
<svg version="1.0" xmlns="http://www.w3.org/2000/svg"
 width="16.000000pt" height="16.000000pt" viewBox="0 0 16.000000 16.000000"
 preserveAspectRatio="xMidYMid meet">
<metadata>
Created by potrace 1.11, written by Peter Selinger 2001-2013
</metadata>
<g transform="translate(0.000000,16.000000) scale(0.006154,-0.006154)"
fill="#000000" stroke="none">
<path d="M0 1300 l0 -1300 1300 0 1300 0 0 1300 0 1300 -1300 0 -1300 0 0
-1300z m2335 0 l0 -1035 -1035 0 -1035 0 -3 1025 c-1 564 0 1031 3 1038 3 10
216 12 1037 10 l1033 -3 0 -1035z"/>
<path d="M330 1300 l0 -970 970 0 970 0 0 970 0 970 -970 0 -970 0 0 -970z
m642 442 c21 -42 93 -192 162 -332 68 -140 127 -265 131 -277 7 -25 31 -53 46
-53 5 0 19 21 30 48 12 26 29 65 39 87 10 22 44 99 75 170 31 72 67 153 80
180 13 28 35 77 50 110 14 33 36 79 48 103 l22 43 85 -3 85 -3 3 -511 2 -511
-51 -6 c-73 -9 -106 0 -114 30 -3 14 -6 184 -5 379 0 195 -3 354 -8 354 -10 0
-11 -3 -212 -450 -126 -279 -140 -305 -163 -308 -25 -3 -34 12 -197 337 -93
188 -173 341 -176 341 -3 0 -4 -141 -3 -312 2 -368 2 -368 -73 -368 l-48 0 0
458 c0 512 6 470 -72 507 -40 18 -51 50 -20 58 9 3 69 5 132 5 l115 1 37 -77z"/>
</g>
</svg>
