<?xml version="1.0" encoding="utf-8"?>
<!-- Generator: Adobe Illustrator 21.0.2, SVG Export Plug-In . SVG Version: 6.00 Build 0)  -->
<svg version="1.1" xmlns="http://www.w3.org/2000/svg" xmlns:xlink="http://www.w3.org/1999/xlink" x="0px" y="0px"
	 viewBox="0 0 193 116" style="enable-background:new 0 0 193 116;" xml:space="preserve">


<g class="FASHION">
<style type="text/css">
	.st0{display:inline;}
	.st1{display:inline;}
	.st2{fill:#94EC9E;}
	.st3{fill:#FFFFFF;}
	.st4{fill:#777777;}
	.st5{fill:#F1CBC5;}
	.st6{fill:#E4D1B0;}
	.st7{fill:#ABE5DC;}
</style>
	<g>
		<rect y="45.5" class="st7" width="193" height="70.5"/>
		<rect class="st3" width="193" height="45.5"/>
		<path id="XMLID_64_" class="st4" d="M41.5,12.2c-6.1,0-11.1,5-11.1,11.1c0,6.1,5,11.1,11.1,11.1c6.1,0,11.1-5,11.1-11.1
			C52.6,17.2,47.7,12.2,41.5,12.2z M88,12.2c-6.1,0-11.1,5-11.1,11.1c0,6.1,5,11.1,11.1,11.1c6.1,0,11.1-5,11.1-11.1
			C99.1,17.2,94.1,12.2,88,12.2z M3.6,12.8l0,0.9c1,0,2.2,0.4,2.2,1.9v18.2h1.8V18.2l7.6,15.6h0.9l7.6-17.3v17.3h3.1V12.8h-3.5
			l-7.1,16.1L8.6,12.8H3.6z M53.9,12.8v0.9c1,0,2.3,0.4,2.3,1.9v18.2h1.8v-17l15,17.6h0.6V12.8h-1.8l0,15.3L58.6,12.8H53.9z
			 M100.4,12.8v0.9c1,0,2.2,0.4,2.2,1.9v18.2h3.2v-9.4c1.5,0.2,2.5,0.3,3.5,0.3c3.5-0.2,6.8-2.4,6.8-6c0-3.7-3.1-5.9-6.8-5.9H100.4z
			 M41.5,13.5c4.2,0,7.6,3.3,7.6,9.8c0,6.5-3.4,9.8-7.6,9.8c-4.2,0-7.7-3.3-7.7-9.8C33.8,16.9,37.3,13.5,41.5,13.5z M88,13.5
			c4.2,0,7.6,3.3,7.6,9.8c0,6.5-3.4,9.8-7.6,9.8c-4.2,0-7.7-3.3-7.7-9.8C80.3,16.9,83.8,13.5,88,13.5z M105.5,14.1h2.3
			c2.7,0,4.8,1.3,4.8,4.6c0,3.6-2.2,4.7-4.8,4.7c-0.7,0-1.4-0.1-2-0.3v-7.8C105.8,14.4,105.7,14.3,105.5,14.1z"/>
		<path class="st7" d="M188,4.4v37.1h-68.5V4.4H188 M190,2.4h-72.5v41.1H190V2.4L190,2.4z"/>
		<g>
			<path class="st7" d="M129.6,34V11.4h4.6V34H129.6z"/>
			<path class="st7" d="M140,27v0.7c0,2.1,0.6,3.5,3,3.5c1.4,0,2.7-0.9,2.7-2.8c0-2.1-1-2.8-4.1-3.9c-4.1-1.4-5.9-3.1-5.9-6.8
				c0-4.4,2.7-6.6,7-6.6c4.1,0,7,1.7,7,6.1v0.6h-4.4c0-2.1-0.7-3.4-2.5-3.4c-2.1,0-2.6,1.3-2.6,2.6c0,1.4,0.4,2.2,2.3,3.1l3.5,1.5
				c3.4,1.5,4.3,3.2,4.3,6c0,4.8-2.9,6.9-7.8,6.9c-5.2,0-7.2-2.4-7.2-6.6V27H140z"/>
			<path class="st7" d="M164.7,11.4v3.7h-4.9V34h-4.6V15.1h-4.9v-3.7H164.7z"/>
			<path class="st7" d="M168,11.4h5.6l6,22.6h-4.7l-1-4.8h-6l-1,4.8h-4.7L168,11.4z M168.6,25.5h4.4l-2.2-10.2h-0.1L168.6,25.5z"/>
		</g>
		<g>
			<path class="st3" d="M9.8,61.8h22.4v7.4H18.9v7.8h12.5v7.4H18.9v16.2H9.8V61.8z"/>
			<path class="st3" d="M38.9,61.8h11.4l9.7,38.8h-9.4l-1.4-7.4h-9.3l-1.4,7.4H29L38.9,61.8z M44.5,68.8h-0.1l-3.2,17.3h6.6
				L44.5,68.8z"/>
			<path class="st3" d="M68.3,88.7V90c0,2.9,0.8,5.2,4,5.2c3.2,0,4.1-2.4,4.1-4.6c0-8.4-16.7-3.7-16.7-18.2C59.7,66.2,63,61,72.4,61
				c9.1,0,12.4,4.6,12.4,10.6v0.9H76c0-1.8-0.2-3.2-0.8-4.1c-0.5-0.9-1.4-1.4-2.8-1.4c-2.3,0-3.6,1.4-3.6,4.2
				c0,8.1,16.7,4,16.7,17.7c0,8.8-4.9,12.3-13.2,12.3c-6.6,0-12.8-2-12.8-10.1v-2.5H68.3z"/>
			<path class="st3" d="M87.7,61.8h9.1v14.5h7.3V61.8h9.1v38.8h-9.1V84h-7.3v16.6h-9.1V61.8z"/>
			<path class="st3" d="M116.9,61.8h9.1v38.8h-9.1V61.8z"/>
			<path class="st3" d="M142.4,101.3c-12,0-13.6-7.8-13.6-20.1S130.4,61,142.4,61c12.9,0,13.6,9.4,13.6,20.1
				S155.3,101.3,142.4,101.3z M142.3,95.2c3.7,0,4.2-3.4,4.2-14.1s-0.5-14.1-4.2-14.1c-3.6,0-4.1,3.4-4.1,14.1
				S138.8,95.2,142.3,95.2z"/>
			<path class="st3" d="M158.6,61.8h10.5l7.5,25.2h0.1V61.8h8.5v38.8h-10.3l-8-26.7h-0.1v26.7h-8.1V61.8z"/>
		</g>
	</g>
</g>
</svg>
