<?xml version="1.0" encoding="utf-8"?>
<!-- Generator: Adobe Illustrator 21.0.2, SVG Export Plug-In . SVG Version: 6.00 Build 0)  -->
<svg version="1.1" xmlns="http://www.w3.org/2000/svg" xmlns:xlink="http://www.w3.org/1999/xlink" x="0px" y="0px"
	 viewBox="0 0 193 116" style="enable-background:new 0 0 193 116;" xml:space="preserve">


<g class="DECO">
<style type="text/css">
	.st0{display:inline;}
	.st1{display:inline;}
	.st2{fill:#94EC9E;}
	.st3{fill:#FFFFFF;}
	.st4{fill:#777777;}
	.st5{fill:#F1CBC5;}
	.st6{fill:#E4D1B0;}
	.st7{fill:#ABE5DC;}
</style>
	<g>
		<rect y="45.5" class="st6" width="193" height="70.5"/>
		<rect class="st3" width="193" height="45.5"/>
		<path id="XMLID_91_" class="st4" d="M41.5,12.2c-6.1,0-11.1,5-11.1,11.1c0,6.1,5,11.1,11.1,11.1c6.1,0,11.1-5,11.1-11.1
			C52.6,17.2,47.7,12.2,41.5,12.2z M88,12.2c-6.1,0-11.1,5-11.1,11.1c0,6.1,5,11.1,11.1,11.1c6.1,0,11.1-5,11.1-11.1
			C99.1,17.2,94.1,12.2,88,12.2z M3.6,12.8l0,0.9c1,0,2.2,0.4,2.2,1.9v18.2h1.8V18.2l7.6,15.6h0.9l7.6-17.3v17.3h3.1V12.8h-3.5
			l-7.1,16.1L8.6,12.8H3.6z M53.9,12.8v0.9c1,0,2.3,0.4,2.3,1.9v18.2h1.8v-17l15,17.6h0.6V12.8h-1.8l0,15.3L58.6,12.8H53.9z
			 M100.4,12.8v0.9c1,0,2.2,0.4,2.2,1.9v18.2h3.2v-9.4c1.5,0.2,2.5,0.3,3.5,0.3c3.5-0.2,6.8-2.4,6.8-6c0-3.7-3.1-5.9-6.8-5.9H100.4z
			 M41.5,13.5c4.2,0,7.6,3.3,7.6,9.8c0,6.5-3.4,9.8-7.6,9.8c-4.2,0-7.7-3.3-7.7-9.8C33.8,16.9,37.3,13.5,41.5,13.5z M88,13.5
			c4.2,0,7.6,3.3,7.6,9.8c0,6.5-3.4,9.8-7.6,9.8c-4.2,0-7.7-3.3-7.7-9.8C80.3,16.9,83.8,13.5,88,13.5z M105.5,14.1h2.3
			c2.7,0,4.8,1.3,4.8,4.6c0,3.6-2.2,4.7-4.8,4.7c-0.7,0-1.4-0.1-2-0.3v-7.8C105.8,14.4,105.7,14.3,105.5,14.1z"/>
		<path class="st6" d="M188,4.4v37.1h-68.5V4.4H188 M190,2.4h-72.5v41.1H190V2.4L190,2.4z"/>
		<g>
			<path class="st6" d="M129.6,34V11.4h4.6V34H129.6z"/>
			<path class="st6" d="M140,27v0.7c0,2.1,0.6,3.5,3,3.5c1.4,0,2.7-0.9,2.7-2.8c0-2.1-1-2.8-4.1-3.9c-4.1-1.4-5.9-3.1-5.9-6.8
				c0-4.4,2.7-6.6,7-6.6c4.1,0,7,1.7,7,6.1v0.6h-4.4c0-2.1-0.7-3.4-2.5-3.4c-2.1,0-2.6,1.3-2.6,2.6c0,1.4,0.4,2.2,2.3,3.1l3.5,1.5
				c3.4,1.5,4.3,3.2,4.3,6c0,4.8-2.9,6.9-7.8,6.9c-5.2,0-7.2-2.4-7.2-6.6V27H140z"/>
			<path class="st6" d="M164.7,11.4v3.7h-4.9V34h-4.6V15.1h-4.9v-3.7H164.7z"/>
			<path class="st6" d="M168,11.4h5.6l6,22.6h-4.7l-1-4.8h-6l-1,4.8h-4.7L168,11.4z M168.6,25.5h4.4l-2.2-10.2h-0.1L168.6,25.5z"/>
		</g>
		<g>
			<path class="st3" d="M19.3,53h19.2c12.8,0,18.2,6.6,18.2,25.7c0,19.9-2.5,29.3-19.6,29.3H19.3V53z M32.3,98.5h3.5
				c6,0,8.1-2.4,8.1-18.9c0-13.4-1.1-17-7.9-17h-3.6V98.5z"/>
			<path class="st3" d="M60.5,53h31.8v10.5H73.4v11h17.7V85H73.4v12.5h19.7V108H60.5V53z M74.9,38.7h12l-7.7,10.9H71L74.9,38.7z"/>
			<path class="st3" d="M118.9,72.1c0-8-0.9-11.5-5.2-11.5c-5.2,0-5.6,4.9-5.6,19.3c0,16.3,0.5,20.6,5.9,20.6c4.8,0,5.3-5.5,5.4-14
				h12.5v1.9c0,11.9-3.3,20.7-19.3,20.7c-16.6,0-17.9-12.4-17.9-29c0-14.1,0.8-28.2,19.1-28.2c11.4,0,17.6,4.9,17.6,17.9v2.3H118.9z
				"/>
			<path class="st3" d="M152.2,109.1c-17,0-19.3-11.1-19.3-28.6c0-17.5,2.3-28.6,19.3-28.6c18.3,0,19.3,13.3,19.3,28.6
				C171.6,95.8,170.6,109.1,152.2,109.1z M152.2,100.5c5.2,0,6-4.9,6-19.9c0-15.1-0.8-19.9-6-19.9c-5.1,0-5.9,4.9-5.9,19.9
				C146.3,95.6,147.1,100.5,152.2,100.5z"/>
		</g>
	</g>
</g>

</svg>
