<?xml version="1.0" encoding="utf-8"?>
<!-- Generator: Adobe Illustrator 21.0.2, SVG Export Plug-In . SVG Version: 6.00 Build 0)  -->
<svg version="1.1" xmlns="http://www.w3.org/2000/svg" xmlns:xlink="http://www.w3.org/1999/xlink" x="0px" y="0px"
	 viewBox="0 0 193 116" style="enable-background:new 0 0 193 116;" xml:space="preserve">

<g class="FOOD">
<style type="text/css">
	.st0{fill:#94EC9E;}
	.st1{fill:#FFFFFF;}
	.st2{fill:#777777;}
	.st3{display:inline;}
	.st4{display:inline;}
	.st5{fill:#F1CBC5;}
	.st6{fill:#E4D1B0;}
	.st7{fill:#ABE5DC;}
</style>
	<g>
		<rect y="45.5" class="st0" width="193" height="70.5"/>
		<rect class="st1" width="193" height="45.5"/>
		<path id="XMLID_127_" class="st2" d="M41.5,12.2c-6.1,0-11.1,5-11.1,11.1c0,6.1,5,11.1,11.1,11.1c6.1,0,11.1-5,11.1-11.1
			C52.6,17.2,47.7,12.2,41.5,12.2z M88,12.2c-6.1,0-11.1,5-11.1,11.1c0,6.1,5,11.1,11.1,11.1c6.1,0,11.1-5,11.1-11.1
			C99.1,17.2,94.1,12.2,88,12.2z M3.6,12.8l0,0.9c1,0,2.2,0.4,2.2,1.9v18.2h1.8V18.2l7.6,15.6h0.9l7.6-17.3v17.3h3.1V12.8h-3.5
			l-7.1,16.1L8.6,12.8H3.6z M53.9,12.8v0.9c1,0,2.3,0.4,2.3,1.9v18.2h1.8v-17l15,17.6h0.6V12.8h-1.8l0,15.3L58.6,12.8H53.9z
			 M100.4,12.8v0.9c1,0,2.2,0.4,2.2,1.9v18.2h3.2v-9.4c1.5,0.2,2.5,0.3,3.5,0.3c3.5-0.2,6.8-2.4,6.8-6c0-3.7-3.1-5.9-6.8-5.9H100.4z
			 M41.5,13.5c4.2,0,7.6,3.3,7.6,9.8c0,6.5-3.4,9.8-7.6,9.8c-4.2,0-7.7-3.3-7.7-9.8C33.8,16.9,37.3,13.5,41.5,13.5z M88,13.5
			c4.2,0,7.6,3.3,7.6,9.8c0,6.5-3.4,9.8-7.6,9.8c-4.2,0-7.7-3.3-7.7-9.8C80.3,16.9,83.8,13.5,88,13.5z M105.5,14.1h2.3
			c2.7,0,4.8,1.3,4.8,4.6c0,3.6-2.2,4.7-4.8,4.7c-0.7,0-1.4-0.1-2-0.3v-7.8C105.8,14.4,105.7,14.3,105.5,14.1z"/>
		<path class="st0" d="M188,4.4v37.1h-68.5V4.4H188 M190,2.4h-72.5v41.1H190V2.4L190,2.4z"/>
		<g>
			<path class="st0" d="M129.6,34V11.4h4.6V34H129.6z"/>
			<path class="st0" d="M140,27v0.7c0,2.1,0.6,3.5,3,3.5c1.4,0,2.7-0.9,2.7-2.8c0-2.1-1-2.8-4.1-3.9c-4.1-1.4-5.9-3.1-5.9-6.8
				c0-4.4,2.7-6.6,7-6.6c4.1,0,7,1.7,7,6.1v0.6h-4.4c0-2.1-0.7-3.4-2.5-3.4c-2.1,0-2.6,1.3-2.6,2.6c0,1.4,0.4,2.2,2.3,3.1l3.5,1.5
				c3.4,1.5,4.3,3.2,4.3,6c0,4.8-2.9,6.9-7.8,6.9c-5.2,0-7.2-2.4-7.2-6.6V27H140z"/>
			<path class="st0" d="M164.7,11.4v3.7h-4.9V34h-4.6V15.1h-4.9v-3.7H164.7z"/>
			<path class="st0" d="M168,11.4h5.6l6,22.6h-4.7l-1-4.8h-6l-1,4.8h-4.7L168,11.4z M168.6,25.5h4.4l-2.2-10.2h-0.1L168.6,25.5z"/>
		</g>
		<g>
			<path class="st1" d="M18.7,53.1h31.8v10.5H31.6v11h17.7v10.5H31.6v23H18.7V53.1z"/>
			<path class="st1" d="M70.7,109.2c-17,0-19.3-11.1-19.3-28.6c0-17.5,2.3-28.6,19.3-28.6c18.3,0,19.3,13.3,19.3,28.6
				C90.1,95.9,89.1,109.2,70.7,109.2z M70.7,100.6c5.2,0,6-4.9,6-19.9c0-15.1-0.8-19.9-6-19.9c-5.1,0-5.9,4.9-5.9,19.9
				C64.8,95.7,65.6,100.6,70.7,100.6z"/>
			<path class="st1" d="M111.9,109.2c-17,0-19.3-11.1-19.3-28.6c0-17.5,2.3-28.6,19.3-28.6c18.3,0,19.3,13.3,19.3,28.6
				C131.2,95.9,130.2,109.2,111.9,109.2z M111.8,100.6c5.2,0,6-4.9,6-19.9c0-15.1-0.8-19.9-6-19.9c-5.1,0-5.9,4.9-5.9,19.9
				C105.9,95.7,106.7,100.6,111.8,100.6z"/>
			<path class="st1" d="M134.9,53.1H154c12.8,0,18.2,6.6,18.2,25.7c0,19.9-2.5,29.3-19.6,29.3h-17.9V53.1z M147.8,98.6h3.5
				c6,0,8.1-2.4,8.1-18.9c0-13.4-1.1-17-7.9-17h-3.6V98.6z"/>
		</g>
	</g>
</g>
</svg>
