<?xml version="1.0" encoding="utf-8"?>
<!-- Generator: Adobe Illustrator 21.0.2, SVG Export Plug-In . SVG Version: 6.00 Build 0)  -->
<svg version="1.1" xmlns="http://www.w3.org/2000/svg" xmlns:xlink="http://www.w3.org/1999/xlink" x="0px" y="0px"
	 viewBox="0 0 193 116" style="enable-background:new 0 0 193 116;" xml:space="preserve">

<g class="BEAUTY">
<style type="text/css">
	.st0{display:inline;}
	.st1{display:inline;}
	.st2{fill:#94EC9E;}
	.st3{fill:#FFFFFF;}
	.st4{fill:#777777;}
	.st5{fill:#F1CBC5;}
	.st6{fill:#E4D1B0;}
	.st7{fill:#ABE5DC;}
</style>
	<g>
		<rect y="45.5" class="st5" width="193" height="70.5"/>
		<rect class="st3" width="193" height="45.5"/>
		<path id="XMLID_109_" class="st4" d="M41.5,12.2c-6.1,0-11.1,5-11.1,11.1c0,6.1,5,11.1,11.1,11.1c6.1,0,11.1-5,11.1-11.1
			C52.6,17.2,47.7,12.2,41.5,12.2z M88,12.2c-6.1,0-11.1,5-11.1,11.1c0,6.1,5,11.1,11.1,11.1c6.1,0,11.1-5,11.1-11.1
			C99.1,17.2,94.1,12.2,88,12.2z M3.6,12.8l0,0.9c1,0,2.2,0.4,2.2,1.9v18.2h1.8V18.2l7.6,15.6h0.9l7.6-17.3v17.3h3.1V12.8h-3.5
			l-7.1,16.1L8.6,12.8H3.6z M53.9,12.8v0.9c1,0,2.3,0.4,2.3,1.9v18.2h1.8v-17l15,17.6h0.6V12.8h-1.8l0,15.3L58.6,12.8H53.9z
			 M100.4,12.8v0.9c1,0,2.2,0.4,2.2,1.9v18.2h3.2v-9.4c1.5,0.2,2.5,0.3,3.5,0.3c3.5-0.2,6.8-2.4,6.8-6c0-3.7-3.1-5.9-6.8-5.9H100.4z
			 M41.5,13.5c4.2,0,7.6,3.3,7.6,9.8c0,6.5-3.4,9.8-7.6,9.8c-4.2,0-7.7-3.3-7.7-9.8C33.8,16.9,37.3,13.5,41.5,13.5z M88,13.5
			c4.2,0,7.6,3.3,7.6,9.8c0,6.5-3.4,9.8-7.6,9.8c-4.2,0-7.7-3.3-7.7-9.8C80.3,16.9,83.8,13.5,88,13.5z M105.5,14.1h2.3
			c2.7,0,4.8,1.3,4.8,4.6c0,3.6-2.2,4.7-4.8,4.7c-0.7,0-1.4-0.1-2-0.3v-7.8C105.8,14.4,105.7,14.3,105.5,14.1z"/>
		<path class="st5" d="M188,4.4v37.1h-68.5V4.4H188 M190,2.4h-72.5v41.1H190V2.4L190,2.4z"/>
		<g>
			<path class="st5" d="M129.6,34V11.4h4.6V34H129.6z"/>
			<path class="st5" d="M140,27v0.7c0,2.1,0.6,3.5,3,3.5c1.4,0,2.7-0.9,2.7-2.8c0-2.1-1-2.8-4.1-3.9c-4.1-1.4-5.9-3.1-5.9-6.8
				c0-4.4,2.7-6.6,7-6.6c4.1,0,7,1.7,7,6.1v0.6h-4.4c0-2.1-0.7-3.4-2.5-3.4c-2.1,0-2.6,1.3-2.6,2.6c0,1.4,0.4,2.2,2.3,3.1l3.5,1.5
				c3.4,1.5,4.3,3.2,4.3,6c0,4.8-2.9,6.9-7.8,6.9c-5.2,0-7.2-2.4-7.2-6.6V27H140z"/>
			<path class="st5" d="M164.7,11.4v3.7h-4.9V34h-4.6V15.1h-4.9v-3.7H164.7z"/>
			<path class="st5" d="M168,11.4h5.6l6,22.6h-4.7l-1-4.8h-6l-1,4.8h-4.7L168,11.4z M168.6,25.5h4.4l-2.2-10.2h-0.1L168.6,25.5z"/>
		</g>
		<g>
			<path class="st3" d="M4.2,56.5h16.3c7.6,0,12.7,3.6,12.7,11c0,5.2-2.7,9.2-7,10v0.1c3.3,0.5,8.2,1.9,8.2,11
				c0,5.2-2.3,12.4-14.7,12.4H4.2V56.5z M14.7,74.3h2.9c3.6,0,5.1-2.1,5.1-5.2c0-2.3-1.2-4.8-5.1-4.8h-2.9V74.3z M14.7,93.3h3.2
				c4.2,0,5.7-2.7,5.7-5.8c0-4.4-2.2-6.2-5.5-6.2h-3.4V93.3z"/>
			<path class="st3" d="M37.6,56.5h25.8V65H48v8.9h14.4v8.5H48v10.2h16v8.5H37.6V56.5z"/>
			<path class="st3" d="M74.5,56.5h13.1L98.7,101H87.9l-1.6-8.5H75.6L74,101H63.1L74.5,56.5z M80.9,64.6h-0.1l-3.7,19.8h7.6
				L80.9,64.6z"/>
			<path class="st3" d="M127.6,86.3c0,8.7-2.5,15.6-14.7,15.6c-12.2,0-14.7-6.9-14.7-15.6V56.5h10.5v32.9c0,3.5,1.4,5.6,4.2,5.6
				s4.2-2.1,4.2-5.6V56.5h10.5V86.3z"/>
			<path class="st3" d="M137.5,65h-9.4v-8.5h29.2V65H148V101h-10.5V65z"/>
			<path class="st3" d="M166.7,83.5l-11.3-27H167l5,16.5h0.1l5.1-16.5h11.2l-11.3,27V101h-10.5V83.5z"/>
		</g>
	</g>
</g>
</svg>
