<?xml version="1.0" encoding="utf-8"?>
<!-- Generator: Adobe Illustrator 19.0.0, SVG Export Plug-In . SVG Version: 6.00 Build 0)  -->
<svg version="1.1" baseProfile="tiny" id="Layer_1" xmlns="http://www.w3.org/2000/svg" xmlns:xlink="http://www.w3.org/1999/xlink"
	 x="0px" y="0px" viewBox="0 0 177.6 39" xml:space="preserve">
<path id="XMLID_1_" fill="#EE3234" d="M35.9,10.3c-5.8,0-10.5,4.7-10.5,10.5c0,5.8,4.7,10.5,10.5,10.5c5.8,0,10.5-4.7,10.5-10.5
	C46.4,15,41.7,10.3,35.9,10.3z M80,10.3c-5.8,0-10.5,4.7-10.5,10.5c0,5.8,4.7,10.5,10.5,10.5c5.8,0,10.5-4.7,10.5-10.5
	C90.5,15,85.8,10.3,80,10.3z M0,10.8l0,0.9c1,0,2.1,0.4,2.1,1.8v17.2h1.7V16l7.2,14.8h0.8l7.2-16.4v16.4h3v-20h-3.3l-6.7,15.3
	L4.7,10.8H0z M47.6,10.8v0.9c1,0,2.2,0.4,2.2,1.8v17.2h1.7V14.6l14.2,16.6h0.5V10.8h-1.7l0,14.5L52.1,10.8H47.6z M91.7,10.8v0.9
	c1,0,2.1,0.4,2.1,1.8v17.2h3v-8.9c1.4,0.2,2.4,0.3,3.3,0.2c3.3-0.2,6.4-2.3,6.4-5.7c0-3.5-3-5.6-6.5-5.6H91.7z M35.9,11.5
	c4,0,7.2,3.2,7.2,9.3c0,6.1-3.2,9.3-7.2,9.3c-4,0-7.3-3.1-7.3-9.3C28.6,14.7,31.9,11.5,35.9,11.5z M80,11.5c4,0,7.2,3.2,7.2,9.3
	c0,6.1-3.2,9.3-7.2,9.3c-4,0-7.3-3.1-7.3-9.3C72.7,14.7,76,11.5,80,11.5z M96.6,12.1h2.2c2.5,0,4.6,1.3,4.6,4.3
	c0,3.4-2.1,4.5-4.6,4.5c-0.7,0-1.3-0.1-1.9-0.2v-7.4C96.8,12.4,96.7,12.3,96.6,12.1z"/>
<path fill="#EE3234" d="M175.6,2v35h-64.8V2H175.6 M177.6,0h-68.8v39h68.8V0L177.6,0z"/>
<g>
	<path id="XMLID_12_" fill="#EE3234" d="M123.6,9.8V30h-2.6V9.8H123.6z"/>
	<path id="XMLID_15_" fill="#EE3234" d="M126.6,26.8c1.2,0.7,2.9,1.3,4.7,1.3c2.7,0,4.2-1.4,4.2-3.4c0-1.9-1.1-3-3.8-4
		c-3.3-1.2-5.3-2.9-5.3-5.7c0-3.1,2.6-5.5,6.5-5.5c2.1,0,3.6,0.5,4.5,1l-0.7,2.1c-0.7-0.4-2-1-3.8-1c-2.8,0-3.8,1.7-3.8,3
		c0,1.9,1.2,2.8,4,3.9c3.4,1.3,5.2,3,5.2,5.9c0,3.1-2.3,5.8-7.1,5.8c-2,0-4.1-0.6-5.2-1.3L126.6,26.8z"/>
	<path id="XMLID_17_" fill="#EE3234" d="M144.3,12h-6.1V9.8h15V12H147v18h-2.6V12z"/>
	<path id="XMLID_31_" fill="#EE3234" d="M155.2,23.6l-2.1,6.4h-2.7l6.9-20.2h3.2l6.9,20.2h-2.8l-2.2-6.4H155.2z M161.9,21.6l-2-5.8
		c-0.5-1.3-0.8-2.5-1-3.7h-0.1c-0.3,1.2-0.6,2.4-1,3.7l-2,5.8H161.9z"/>
</g>
<g id="XMLID_9_">
</g>
<g id="XMLID_30_">
</g>
<g id="XMLID_34_">
</g>
<g id="XMLID_35_">
</g>
<g id="XMLID_36_">
</g>
<g id="XMLID_39_">
</g>
</svg>
